<svg version="1.1" viewBox="0.0 0.0 256.0 256.0" fill="none" stroke="none" stroke-linecap="square" stroke-miterlimit="10" xmlns:xlink="http://www.w3.org/1999/xlink" xmlns="http://www.w3.org/2000/svg"><clipPath id="p.0"><path d="m0 0l256.0 0l0 256.0l-256.0 0l0 -256.0z" clip-rule="nonzero"/></clipPath><g clip-path="url(#p.0)"><path fill="#000000" fill-opacity="0.0" d="m0 0l256.0 0l0 256.0l-256.0 0z" fill-rule="evenodd"/><path fill="#ffffff" d="m255.9991 128.0004l0 0c0 -70.692444 -57.30754 -128.0 -127.99999 -128.0l0 0c-33.947716 0 -66.50501 13.485675 -90.509674 37.49033c-24.004656 24.004658 -37.490334 56.561962 -37.490334 90.509674l0 0c0 70.692444 57.307552 128.0 128.0 128.0l0 0c70.69245 0 127.99999 -57.307556 127.99999 -128.0z" fill-rule="evenodd"/><path fill="#000000" fill-opacity="0.0" d="m0 -12.787401l230.3937 0l0 268.7874l-230.3937 0z" fill-rule="evenodd"/><path fill="#434343" d="m156.78394 251.8763q-8.546875 0 -17.65625 -2.015625q-9.109375 -2.0 -18.187492 -5.078125q-9.078125 -3.0625 -18.046875 -6.78125q-8.96875 -3.703125 -17.09375 -7.4375q-8.125 -3.734375 -15.296875 -6.890625q-7.15625 -3.15625 -8.8125 -3.75q-4.578125 4.875 -11.09375 9.734375q-6.515625 4.859375 -14.421875 4.859375q-5.375 0 -8.859375 -1.921875q-3.484375 -1.90625 -5.328125 -4.65625q-1.828125 -2.75 -2.1875 -5.203125q-0.34375 -2.453125 -0.34375 -3.46875q0 -4.09375 2.171875 -8.0q2.171875 -3.90625 6.046875 -6.8125q3.875 -2.921875 9.296875 -4.59375q5.421875 -1.6875 12.328125 -1.6875q2.46875 0 5.3125 0.265625q2.84375 0.25 2.84375 2.375q4.546875 -7.984375 13.828125 -20.421875q9.28125 -12.4375 19.359375 -27.03125q10.09375 -14.59375 20.671875 -30.328125q10.578125 -15.75 21.031242 -31.03125q10.453125 -15.296875 20.53125 -29.203129q10.09375 -13.921875 12.546875 -16.4375q-0.328125 0.1875 -11.25 -2.6875q-10.90625 -2.875 -21.8125 -5.609375q-10.890617 -2.734375 -21.531242 -4.703125q-10.625 -1.9843731 -20.984375 -1.9843731q-12.125 0 -20.765625 2.843748q-8.625 2.828125 -14.546875 7.078125q-5.921875 4.25 -9.8125 9.453125q-3.875 5.1875 -9.09375 14.828129l-14.828125 -6.125004q10.765625 -31.109373 28.578125 -43.390625q17.828125 -12.28125 42.359375 -12.28125q14.5 0 27.3125 3.359375q12.828117 3.3437505 24.124992 7.8125005q11.3125 4.453125 21.25 8.75q9.9375 4.296875 17.203125 11.718748q-3.5625 -4.171873 -2.421875 -3.15625q1.15625 1.0 -1.0625 -1.0468731q8.875 -9.71875 17.53125 -14.421875q8.671875 -4.703125 16.078125 -4.703125q7.71875 0 12.65625 5.046875q4.9375 5.046875 4.9375 11.671875q0 5.937498 -3.28125 10.093748q-3.265625 4.15625 -8.015625 6.578125q-4.75 2.421875 -10.578125 3.421875q-5.828125 1.0 -12.1875 1.0q-3.0 0 -6.15625 -0.078125q-3.140625 -0.09375 -3.40625 -0.859375q-6.765625 8.546875 -16.1875 21.500004q-9.40625 12.9375 -19.140625 27.390625q-9.71875 14.453125 -19.640625 29.703125q-9.921867 15.234375 -20.046867 30.046875q-10.109375 14.796875 -20.296875 28.53125q-10.1875 13.734375 -14.21875 17.671875q0.359375 -0.265625 11.53125 3.859375q11.171875 4.109375 22.78125 7.921875q11.625 3.796875 23.312492 6.453125q11.703125 2.65625 22.671875 2.65625q9.515625 0 17.0 -2.421875q7.484375 -2.4375 12.53125 -6.6875q5.046875 -4.25 7.765625 -10.359375q2.71875 -6.109375 2.71875 -13.96875q0 -3.15625 -0.84375 -6.421875q-0.828125 -3.265625 -2.46875 -6.28125q-1.625 -3.03125 -3.796875 -5.625q-2.171875 -2.59375 -10.453125 -7.765625l10.21875 -14.328125q11.0 7.21875 15.859375 11.765625q4.859375 4.53125 8.375 10.0625q3.53125 5.53125 5.359375 12.15625q1.84375 6.609375 1.84375 14.453125q0 9.796875 -3.765625 19.3125q-3.75 9.5 -11.71875 16.96875q-7.96875 7.46875 -19.9375 11.890625q-11.96875 4.421875 -28.390625 4.421875zm33.25 -214.59375q1.0625 -5.499998 2.5625 -5.499998q1.515625 0 3.265625 0q9.71875 0 12.765625 -1.484375q3.046875 -1.484375 2.59375 -1.484375q1.921875 0 1.421875 0.84375q-0.5 0.84375 -1.171875 0.84375q-2.125 0 -7.140625 2.624998q-5.0 2.625 -10.3125 8.078125l-3.984375 -3.921875zm-137.28125 173.89062q-2.71875 5.125 -3.453125 5.125q-3.65625 0 -6.1875 0.71875q-2.515625 0.703125 -3.84375 1.515625q-1.328125 0.8125 -2.484375 0.78125q-1.15625 -0.046875 0.796875 -0.046875q-3.171875 0 -2.421875 -1.4375q0.75 -1.4375 1.015625 -1.4375q2.4375 0 5.296875 -2.15625q2.859375 -2.171875 7.09375 -6.96875l4.1875 3.90625z" fill-rule="nonzero"/></g></svg>